<svg xmlns="http://www.w3.org/2000/svg" viewBox="0 0 156.23 35.66"><defs><style>.cls-1{fill:#41a4ef;}.cls-2{fill:#b0e1ff;}.cls-3{fill:#d7f2ff;}.cls-4{fill:#5cadf7;}</style></defs><title>アセット 2</title><g id="レイヤー_2" data-name="レイヤー 2"><g id="レイヤー_1-2" data-name="レイヤー 1"><path class="cls-1" d="M59.68,20h-.77L62,12.85a.25.25,0,0,0-.23-.35h-.31a.25.25,0,0,0-.23.15L58.06,20H52.4v-7.2a.25.25,0,0,0-.25-.25h-.28a.25.25,0,0,0-.25.25V27.88a.25.25,0,0,0,.25.25h.28a.25.25,0,0,0,.25-.25V20.73h7.28a3.78,3.78,0,0,1,2.18.51,1.94,1.94,0,0,1,.68,1.7v4.93a.25.25,0,0,0,.25.25h.28a.25.25,0,0,0,.25-.25V22.95a2.73,2.73,0,0,0-.94-2.3A4.41,4.41,0,0,0,59.68,20Z"/><path class="cls-1" d="M80.68,12.5h-8.9a.25.25,0,0,0-.25.25V13a.25.25,0,0,0,.25.25h4.09V27.35H71.78a.25.25,0,0,0-.25.25v.28a.25.25,0,0,0,.25.25h8.9a.25.25,0,0,0,.25-.25V27.6a.25.25,0,0,0-.25-.25h-4V13.29h4a.25.25,0,0,0,.25-.25v-.28A.25.25,0,0,0,80.68,12.5Z"/><path class="cls-1" d="M99.78,12.5H88a.25.25,0,0,0-.25.25V13a.25.25,0,0,0,.25.25h5.49V27.88a.25.25,0,0,0,.25.25H94a.25.25,0,0,0,.25-.25V13.29h5.49A.25.25,0,0,0,100,13v-.28A.25.25,0,0,0,99.78,12.5Z"/><path class="cls-1" d="M118.15,12.5H106.39a.25.25,0,0,0-.25.25V13a.25.25,0,0,0,.25.25h5.49V27.88a.25.25,0,0,0,.25.25h.28a.25.25,0,0,0,.25-.25V13.29h5.49a.25.25,0,0,0,.25-.25v-.28A.25.25,0,0,0,118.15,12.5Z"/><path class="cls-1" d="M135.87,12.5h-9.44a.25.25,0,0,0-.25.25V27.88a.25.25,0,0,0,.25.25h9.44a.25.25,0,0,0,.25-.25V27.6a.25.25,0,0,0-.25-.25H127V20.59h6.64a.25.25,0,0,0,.25-.25v-.28a.25.25,0,0,0-.25-.25H127V13.29h8.91a.25.25,0,0,0,.25-.25v-.28A.25.25,0,0,0,135.87,12.5Z"/><path class="cls-1" d="M156,12.5h-.28a.25.25,0,0,0-.25.25V23.91l-9.87-11.1h0a1.89,1.89,0,0,0-.26-.23.61.61,0,0,0-.71,0,.54.54,0,0,0-.21.45V27.88a.25.25,0,0,0,.25.25h.28a.25.25,0,0,0,.25-.25V13.55l10.28,11.53v2.79a.25.25,0,0,0,.25.25H156a.25.25,0,0,0,.25-.25V12.75A.25.25,0,0,0,156,12.5Z"/><polygon class="cls-2" points="17.87 35.66 17.87 17.8 35.74 17.8 17.87 35.66"/><polygon class="cls-3" points="35.74 0 35.74 17.87 17.87 17.87 35.74 0"/><polygon class="cls-2" points="17.87 17.87 0 17.87 0 0 17.87 17.87"/><polygon class="cls-4" points="0 17.8 17.87 17.8 17.87 35.66 0 17.8"/></g></g></svg>