<svg xmlns="http://www.w3.org/2000/svg" viewBox="0 0 104.6 60.13"><defs><style>.cls-1{fill:#41a4ef;}.cls-2{fill:#b0e1ff;}.cls-3{fill:#d7f2ff;}.cls-4{fill:#5cadf7;}</style></defs><title>アセット 1</title><g id="レイヤー_2" data-name="レイヤー 2"><g id="レイヤー_1-2" data-name="レイヤー 1"><path class="cls-1" d="M8.06,52H7.29l3.07-7.1a.25.25,0,0,0-.23-.35H9.83a.25.25,0,0,0-.23.15L6.44,52H.78v-7.2a.25.25,0,0,0-.25-.25H.25a.25.25,0,0,0-.25.25V59.88a.25.25,0,0,0,.25.25H.53a.25.25,0,0,0,.25-.25V52.73H8.06a3.78,3.78,0,0,1,2.18.51,1.94,1.94,0,0,1,.68,1.7v4.93a.25.25,0,0,0,.25.25h.28a.25.25,0,0,0,.25-.25V54.95a2.73,2.73,0,0,0-.94-2.3A4.41,4.41,0,0,0,8.06,52Z"/><path class="cls-1" d="M29.06,44.5h-8.9a.25.25,0,0,0-.25.25V45a.25.25,0,0,0,.25.25h4.09V59.35H20.16a.25.25,0,0,0-.25.25v.28a.25.25,0,0,0,.25.25h8.9a.25.25,0,0,0,.25-.25V59.6a.25.25,0,0,0-.25-.25H25V45.29h4a.25.25,0,0,0,.25-.25v-.28A.25.25,0,0,0,29.06,44.5Z"/><path class="cls-1" d="M48.16,44.5H36.4a.25.25,0,0,0-.25.25V45a.25.25,0,0,0,.25.25h5.49V59.88a.25.25,0,0,0,.25.25h.28a.25.25,0,0,0,.25-.25V45.29h5.49a.25.25,0,0,0,.25-.25v-.28A.25.25,0,0,0,48.16,44.5Z"/><path class="cls-1" d="M66.53,44.5H54.77a.25.25,0,0,0-.25.25V45a.25.25,0,0,0,.25.25h5.49V59.88a.25.25,0,0,0,.25.25h.28a.25.25,0,0,0,.25-.25V45.29h5.49a.25.25,0,0,0,.25-.25v-.28A.25.25,0,0,0,66.53,44.5Z"/><path class="cls-1" d="M84.25,44.5H74.81a.25.25,0,0,0-.25.25V59.88a.25.25,0,0,0,.25.25h9.44a.25.25,0,0,0,.25-.25V59.6a.25.25,0,0,0-.25-.25H75.34V52.59H82a.25.25,0,0,0,.25-.25v-.28a.25.25,0,0,0-.25-.25H75.34V45.29h8.91A.25.25,0,0,0,84.5,45v-.28A.25.25,0,0,0,84.25,44.5Z"/><path class="cls-1" d="M104.35,44.5h-.28a.25.25,0,0,0-.25.25V55.91L94,44.81h0a1.89,1.89,0,0,0-.26-.23.61.61,0,0,0-.71,0,.54.54,0,0,0-.21.45V59.88a.25.25,0,0,0,.25.25h.28a.25.25,0,0,0,.25-.25V45.55l10.28,11.53v2.79a.25.25,0,0,0,.25.25h.28a.25.25,0,0,0,.25-.25V44.75A.25.25,0,0,0,104.35,44.5Z"/><polygon class="cls-2" points="51.25 35.66 51.25 17.8 69.11 17.8 51.25 35.66"/><polygon class="cls-3" points="69.11 0 69.11 17.87 51.25 17.87 69.11 0"/><polygon class="cls-2" points="51.24 17.87 33.38 17.87 33.38 0 51.24 17.87"/><polygon class="cls-4" points="33.38 17.8 51.24 17.8 51.24 35.66 33.38 17.8"/></g></g></svg>